<svg width="93" height="98" viewBox="0 0 93 98" fill="none" xmlns="http://www.w3.org/2000/svg">
<path d="M89.5041 3.67999L57.7241 79H35.1841L3.54406 3.67999H26.0841L46.9441 54.92L68.5041 3.67999H89.5041Z" fill="white"/>
<path d="M65.5211 81.2C61.4211 81.2 57.9711 79.8 55.1711 77C52.3711 74.2 50.9711 70.7 50.9711 66.5C50.9711 62.2 52.3711 58.75 55.1711 56.15C57.9711 53.45 61.4211 52.1 65.5211 52.1C69.6211 52.1 73.0711 53.45 75.8711 56.15C78.6711 58.75 80.0711 62.2 80.0711 66.5C80.0711 70.7 78.6711 74.2 75.8711 77C73.0711 79.8 69.6211 81.2 65.5211 81.2Z" fill="#43FF88"/>
</svg>
